<svg width="888" height="300" xmlns="http://www.w3.org/2000/svg"><defs><style>svg {    font: 10px sans-serif;      fill:rgb(50%, 50%, 50%);  }       .axis path, .axis line {      fill: none;     stroke: rgb(50%, 50%, 50%);   shape-rendering: crispEdges;  }       .x.axis path {    display: none;    }       .line {   fill: none;     stroke: steelblue;      stroke-width: 1.5px;  }   .xtick {   transform: rotate(-35deg);    text-anchor: end; }   </style></defs><g transform="translate(35,10)"><g class="x axis" transform="translate(0,240)"><g class="tick" style="opacity: 1;" transform="translate(95.046154325591,0)"><line y2="6" x2="0"></line><text dy=".125em" style="text-anchor: end;" y="9" x="0" dx="-.5em" class="xtick">01 Oct 15</text></g><g class="tick" style="opacity: 1;" transform="translate(228.9748263298329,0)"><line y2="6" x2="0"></line><text dy=".125em" style="text-anchor: end;" y="9" x="0" dx="-.5em" class="xtick">01 Nov 15</text></g><g class="tick" style="opacity: 1;" transform="translate(358.5832185920024,0)"><line y2="6" x2="0"></line><text dy=".125em" style="text-anchor: end;" y="9" x="0" dx="-.5em" class="xtick">01 Dec 15</text></g><g class="tick" style="opacity: 1;" transform="translate(492.5118905962443,0)"><line y2="6" x2="0"></line><text dy=".125em" style="text-anchor: end;" y="9" x="0" dx="-.5em" class="xtick">01 Jan 16</text></g><g class="tick" style="opacity: 1;" transform="translate(626.4405626004863,0)"><line y2="6" x2="0"></line><text dy=".125em" style="text-anchor: end;" y="9" x="0" dx="-.5em" class="xtick">01 Feb 16</text></g><g class="tick" style="opacity: 1;" transform="translate(751.7286751205834,0)"><line y2="6" x2="0"></line><text dy=".125em" style="text-anchor: end;" y="9" x="0" dx="-.5em" class="xtick">01 Mar 16</text></g><path class="domain" d="M0,6V0H873V6"></path></g><g class="y axis"><g class="tick" style="opacity: 1;" transform="translate(0,229.92579042726612)"><line x2="-6" y2="0"></line><text dy=".32em" style="text-anchor: end;" x="-9" y="0">100K</text></g><g class="tick" style="opacity: 1;" transform="translate(0,208.80302013369658)"><line x2="-6" y2="0"></line><text dy=".32em" style="text-anchor: end;" x="-9" y="0">200K</text></g><g class="tick" style="opacity: 1;" transform="translate(0,187.68024984012703)"><line x2="-6" y2="0"></line><text dy=".32em" style="text-anchor: end;" x="-9" y="0">300K</text></g><g class="tick" style="opacity: 1;" transform="translate(0,166.5574795465575)"><line x2="-6" y2="0"></line><text dy=".32em" style="text-anchor: end;" x="-9" y="0">400K</text></g><g class="tick" style="opacity: 1;" transform="translate(0,145.43470925298794)"><line x2="-6" y2="0"></line><text dy=".32em" style="text-anchor: end;" x="-9" y="0">500K</text></g><g class="tick" style="opacity: 1;" transform="translate(0,124.3119389594184)"><line x2="-6" y2="0"></line><text dy=".32em" style="text-anchor: end;" x="-9" y="0">600K</text></g><g class="tick" style="opacity: 1;" transform="translate(0,103.18916866584888)"><line x2="-6" y2="0"></line><text dy=".32em" style="text-anchor: end;" x="-9" y="0">700K</text></g><g class="tick" style="opacity: 1;" transform="translate(0,82.06639837227934)"><line x2="-6" y2="0"></line><text dy=".32em" style="text-anchor: end;" x="-9" y="0">800K</text></g><g class="tick" style="opacity: 1;" transform="translate(0,60.94362807870981)"><line x2="-6" y2="0"></line><text dy=".32em" style="text-anchor: end;" x="-9" y="0">900K</text></g><g class="tick" style="opacity: 1;" transform="translate(0,39.82085778514026)"><line x2="-6" y2="0"></line><text dy=".32em" style="text-anchor: end;" x="-9" y="0">1.0M</text></g><g class="tick" style="opacity: 1;" transform="translate(0,18.698087491570714)"><line x2="-6" y2="0"></line><text dy=".32em" style="text-anchor: end;" x="-9" y="0">1.1M</text></g><path class="domain" d="M-6,0H0V240H-6"></path><text transform="rotate(-90)" y="6" dy=".71em" style="text-anchor: end;">RPS</text></g><g class="type"><path class="line" d="M125.28811252009723,157.45715642097895L250.57622504019446,144.304641042282L263.53706426641145,147.2309896387531L332.6615401395685,94.0803964321529L600.5188841480523,0" style="stroke: #1f77b4;"><title>ASP.NET Core (Win)</title></path><g class="line-point"><circle cx="125.28811252009723" cy="157.45715642097895" r="3" style="fill: white; stroke: #1f77b4;"><title>ASP.NET Core (Win)</title></circle><circle cx="250.57622504019446" cy="144.304641042282" r="3" style="fill: white; stroke: #1f77b4;"><title>ASP.NET Core (Win)</title></circle><circle cx="263.53706426641145" cy="147.2309896387531" r="3" style="fill: white; stroke: #1f77b4;"><title>ASP.NET Core (Win)</title></circle><circle cx="332.6615401395685" cy="94.0803964321529" r="3" style="fill: white; stroke: #1f77b4;"><title>ASP.NET Core (Win)</title></circle><circle cx="600.5188841480523" cy="0" r="3" style="fill: white; stroke: #1f77b4;"><title>ASP.NET Core (Win)</title></circle></g><text transform="translate(600.5188841480523,0)" x="3" dy=".35em">ASP.NET Core (Win)</text></g><g class="type"><path class="line" d="M125.28811252009723,183.6654448904283L250.57622504019446,164.47561930642328L263.53706426641145,168.58104094068145L600.5188841480523,55.024394159342805" style="stroke: #ff7f0e;"><title>ASP.NET Core (Linux)</title></path><g class="line-point"><circle cx="125.28811252009723" cy="183.6654448904283" r="3" style="fill: white; stroke: #ff7f0e;"><title>ASP.NET Core (Linux)</title></circle><circle cx="250.57622504019446" cy="164.47561930642328" r="3" style="fill: white; stroke: #ff7f0e;"><title>ASP.NET Core (Linux)</title></circle><circle cx="263.53706426641145" cy="168.58104094068145" r="3" style="fill: white; stroke: #ff7f0e;"><title>ASP.NET Core (Linux)</title></circle><circle cx="600.5188841480523" cy="55.024394159342805" r="3" style="fill: white; stroke: #ff7f0e;"><title>ASP.NET Core (Linux)</title></circle></g><text transform="translate(600.5188841480523,55.024394159342805)" x="3" dy=".35em">ASP.NET Core (Linux)</text></g><g class="type"><path class="line" d="M125.28811252009723,224.8968812757731Z" style="stroke: #2ca02c;"><title>ASP.NET Core (WebList)</title></path><g class="line-point"><circle cx="125.28811252009723" cy="224.8968812757731" r="3" style="fill: white; stroke: #2ca02c;"><title>ASP.NET Core (WebList)</title></circle></g><text transform="translate(125.28811252009723,224.8968812757731)" x="3" dy=".35em">ASP.NET Core (WebList)</text></g><g class="type"><path class="line" d="M0,237.23785981979108Z" style="stroke: #d62728;"><title>ASP.NET4.6</title></path><g class="line-point"><circle cx="0" cy="237.23785981979108" r="3" style="fill: white; stroke: #d62728;"><title>ASP.NET4.6</title></circle></g><text transform="translate(0,237.23785981979108)" x="3" dy=".35em">ASP.NET4.6</text></g><g class="type"><path class="line" d="M0,168.45852887297875L69.1244758731571,168.45852887297875L90.72587458351869,168.45852887297875" style="stroke: #9467bd;"><title>ASP.NET Core (CLR)</title></path><g class="line-point"><circle cx="0" cy="168.45852887297875" r="3" style="fill: white; stroke: #9467bd;"><title>ASP.NET Core (CLR)</title></circle><circle cx="69.1244758731571" cy="168.45852887297875" r="3" style="fill: white; stroke: #9467bd;"><title>ASP.NET Core (CLR)</title></circle><circle cx="90.72587458351869" cy="168.45852887297875" r="3" style="fill: white; stroke: #9467bd;"><title>ASP.NET Core (CLR)</title></circle></g><text transform="translate(90.72587458351869,168.45852887297875)" x="3" dy=".35em">ASP.NET Core (CLR)</text></g><g class="type"><path class="line" d="M125.28811252009723,236.92545404714917Z" style="stroke: #8c564b;"><title>ASP.NET Core (Mono)</title></path><g class="line-point"><circle cx="125.28811252009723" cy="236.92545404714917" r="3" style="fill: white; stroke: #8c564b;"><title>ASP.NET Core (Mono)</title></circle></g><text transform="translate(125.28811252009723,236.92545404714917)" x="3" dy=".35em">ASP.NET Core (Mono)</text></g><g class="type"><path class="line" d="M0,219.58957401181078Z" style="stroke: #e377c2;"><title>NodeJs</title></path><g class="line-point"><circle cx="0" cy="219.58957401181078" r="3" style="fill: white; stroke: #e377c2;"><title>NodeJs</title></circle></g><text transform="translate(0,219.58957401181078)" x="3" dy=".35em">NodeJs</text></g></g></svg>